<svg xmlns="http://www.w3.org/2000/svg" viewBox="0 0 585.05 117.39"><defs><style>.cls-1{fill:#2e2e2e;}.cls-2{fill:#c69e75;}</style></defs><g id="Layer_2" data-name="Layer 2"><g id="Layer_1-2" data-name="Layer 1"><g id="Layer_2-2" data-name="Layer 2"><g id="Layer_1-2-2" data-name="Layer 1-2"><path class="cls-1" d="M10.81,103.53v13.68H9.93v-6.62h-8v6.62H1.07V103.53h.87v6.31h8v-6.31Z"/><path class="cls-1" d="M30.49,103.53v13.68h-.88V103.53Z"/><path class="cls-1" d="M58.48,105.34a7.71,7.71,0,0,1,0,10.08,7.46,7.46,0,0,1-5.35,1.79H49.29V103.53h3.84A7.48,7.48,0,0,1,58.48,105.34Zm-.63,9.52a6,6,0,0,0,1.62-4.47,6.08,6.08,0,0,0-1.62-4.5,6.39,6.39,0,0,0-4.72-1.62h-3v12.2h3A6.42,6.42,0,0,0,57.85,114.86Z"/><path class="cls-1" d="M87.79,105.34a7.71,7.71,0,0,1,0,10.08,7.51,7.51,0,0,1-5.35,1.79H78.6V103.53h3.84A7.48,7.48,0,0,1,87.79,105.34Zm-.64,9.52a6,6,0,0,0,1.62-4.47,6.08,6.08,0,0,0-1.62-4.5,6.36,6.36,0,0,0-4.71-1.62h-3v12.2h3A6.37,6.37,0,0,0,87.15,114.86Z"/><path class="cls-1" d="M108.78,104.27V110h5.46v.74h-5.46v5.75h6v.74h-6.91v-13.7h6.91v.74Z"/><path class="cls-1" d="M142.84,117.21H142L134,105v12.24h-.88V103.55H134l8,12.2v-12.2h.87Z"/><path class="cls-1" d="M189.88,110.21a4.93,4.93,0,0,1-3.35,1h-2.92v6h-.88V103.53h3.8a4.77,4.77,0,0,1,3.37,1,3.68,3.68,0,0,1,1.11,2.82A3.54,3.54,0,0,1,189.88,110.21Zm.26-2.82a3,3,0,0,0-.86-2.29,4,4,0,0,0-2.75-.79h-2.92v6.12h2.92C188.93,110.43,190.14,109.42,190.14,107.39Z"/><path class="cls-1" d="M216.71,113.7h-6.48l-1.31,3.51H208l5-13.37h1l5,13.37h-1Zm-.27-.74-3-8-3,8Z"/><path class="cls-1" d="M244.15,117.21l-3.51-5.82h-3v5.82h-.87V103.53h3.76A4.84,4.84,0,0,1,244,104.6a3.72,3.72,0,0,1,1.14,2.85,3.8,3.8,0,0,1-.89,2.6,4,4,0,0,1-2.58,1.26l3.58,5.9Zm-6.51-6.57h2.92a3.71,3.71,0,0,0,2.71-.87,3.08,3.08,0,0,0,.9-2.32c0-2.09-1.22-3.14-3.64-3.14h-2.89Z"/><path class="cls-1" d="M271,113.7h-6.49l-1.3,3.51h-1l5-13.37h1l5,13.37h-.95Zm-.27-.74-3-8-3,8Z"/><path class="cls-1" d="M300.28,105.34a7.71,7.71,0,0,1,0,10.08,7.51,7.51,0,0,1-5.35,1.79h-3.84V103.53h3.84A7.48,7.48,0,0,1,300.28,105.34Zm-.63,9.52a6,6,0,0,0,1.61-4.47,6.11,6.11,0,0,0-1.61-4.5,6.39,6.39,0,0,0-4.72-1.62h-3v12.2h3A6.42,6.42,0,0,0,299.65,114.86Z"/><path class="cls-1" d="M321.27,103.53v13.68h-.87V103.53Z"/><path class="cls-1" d="M341.72,116.88a3.69,3.69,0,0,1-1.55-1.27,3.52,3.52,0,0,1-.64-1.77h.92a3.3,3.3,0,0,0,1,1.91,3.59,3.59,0,0,0,2.59.84,4,4,0,0,0,1.76-.37,2.88,2.88,0,0,0,1.16-1,2.64,2.64,0,0,0,.41-1.42,2.41,2.41,0,0,0-.48-1.58,2.92,2.92,0,0,0-1.19-.87,16.56,16.56,0,0,0-1.92-.63,15.61,15.61,0,0,1-2.13-.7,3.29,3.29,0,0,1-1.37-1.08,3.23,3.23,0,0,1-.55-2,3.14,3.14,0,0,1,.52-1.78,3.5,3.5,0,0,1,1.47-1.28,4.92,4.92,0,0,1,2.2-.46,4.5,4.5,0,0,1,2.92.89,3.55,3.55,0,0,1,1.33,2.2h-.94a3,3,0,0,0-.52-1.07,3,3,0,0,0-1.13-.9,3.86,3.86,0,0,0-1.74-.36,3.55,3.55,0,0,0-2.3.75,2.7,2.7,0,0,0-.45,3.58,3.14,3.14,0,0,0,1.2.9,14.75,14.75,0,0,0,1.92.61,17.73,17.73,0,0,1,2.13.71,3.35,3.35,0,0,1,1.35,1.07,3.23,3.23,0,0,1,.55,2,3.45,3.45,0,0,1-.48,1.74,3.76,3.76,0,0,1-1.44,1.33,4.63,4.63,0,0,1-2.28.52A5.48,5.48,0,0,1,341.72,116.88Z"/><path class="cls-1" d="M367.34,104.27V110h5.45v.74h-5.45v5.75h6v.74h-6.92v-13.7h6.92v.74Z"/><path class="cls-1" d="M415.39,116.48A6.33,6.33,0,0,1,413,114a8.11,8.11,0,0,1,0-7.22,6.31,6.31,0,0,1,2.38-2.48,7,7,0,0,1,6.82,0,6.31,6.31,0,0,1,2.38,2.48,8,8,0,0,1,0,7.22,6.31,6.31,0,0,1-2.38,2.48,7,7,0,0,1-6.82,0Zm6.33-.65a5.38,5.38,0,0,0,2.06-2.17,7.55,7.55,0,0,0,0-6.56,5.38,5.38,0,0,0-2.06-2.17,6.06,6.06,0,0,0-5.84,0,5.47,5.47,0,0,0-2.07,2.17,7.48,7.48,0,0,0,0,6.56,5.47,5.47,0,0,0,2.07,2.17A6,6,0,0,0,421.72,115.83Z"/><path class="cls-1" d="M450.74,103.53v.74h-6.18V110H450v.74h-5.4v6.49h-.88v-13.7Z"/><path class="cls-1" d="M490.53,103.53v8.56a4.74,4.74,0,0,0,1.05,3.4,3.81,3.81,0,0,0,2.86,1.08,3.73,3.73,0,0,0,2.83-1.07,4.77,4.77,0,0,0,1-3.41v-8.56h.88v8.54a5.45,5.45,0,0,1-1.29,4A5,5,0,0,1,491,116a5.37,5.37,0,0,1-1.32-4v-8.54Z"/><path class="cls-1" d="M525.79,111.31a3.34,3.34,0,0,1,.81,2.24,3.56,3.56,0,0,1-.5,1.88,3.39,3.39,0,0,1-1.48,1.3,5.47,5.47,0,0,1-2.39.48h-4.34V103.53h4.26a4.45,4.45,0,0,1,3.09,1,3.29,3.29,0,0,1-1.45,5.66A3.28,3.28,0,0,1,525.79,111.31Zm-7-1.56h3.43a3.54,3.54,0,0,0,2.37-.73,2.56,2.56,0,0,0,.83-2,2.49,2.49,0,0,0-.82-2,3.66,3.66,0,0,0-2.47-.72h-3.34Zm6,5.91a2.93,2.93,0,0,0,.2-4.14,1.89,1.89,0,0,0-.2-.2,4,4,0,0,0-2.64-.81H518.8v5.94h3.41a3.86,3.86,0,0,0,2.56-.79Z"/><path class="cls-1" d="M545.56,103.53v8.56a4.74,4.74,0,0,0,1.05,3.4,3.81,3.81,0,0,0,2.86,1.08,3.73,3.73,0,0,0,2.83-1.07,4.77,4.77,0,0,0,1-3.41v-8.56h.88v8.54a5.45,5.45,0,0,1-1.29,4,4.66,4.66,0,0,1-3.45,1.31A4.71,4.71,0,0,1,546,116a5.4,5.4,0,0,1-1.31-4v-8.54Z"/><path class="cls-1" d="M582.1,105.34a7.71,7.71,0,0,1,0,10.08,7.46,7.46,0,0,1-5.35,1.79h-3.84V103.53h3.84A7.42,7.42,0,0,1,582.1,105.34Zm-.63,9.52a6,6,0,0,0,1.62-4.47,6.08,6.08,0,0,0-1.62-4.5,6.39,6.39,0,0,0-4.72-1.62h-3v12.2h3A6.42,6.42,0,0,0,581.47,114.86Z"/><path class="cls-2" d="M61.92,72.14a9.18,9.18,0,0,0,5.73,2.14v.54H46.88v-.43c1.85-.21,2.78-.89,2.78-2a7,7,0,0,0-1.6-3.54L23.12,32.22l-8.88,9.1V70.75a3.85,3.85,0,0,0,.85,2.41c.57.75,1.93,1.19,4.07,1.34V75H0v-.5c2.14-.15,3.5-.59,4.07-1.34a3.85,3.85,0,0,0,.85-2.41V4.28a3.85,3.85,0,0,0-.85-2.46C3.5,1.11,2.14.68,0,.54V0H19.16V.54c-2.14.14-3.5.57-4.07,1.28a3.85,3.85,0,0,0-.85,2.46V39.82L48,5.46A3.61,3.61,0,0,0,49,3.1C49,1.82,48,1,45.81.54V.11H58.44V.64a11.58,11.58,0,0,0-5,1.66,26.14,26.14,0,0,0-4.33,3.59L29,26.33l27.5,40A22.71,22.71,0,0,0,61.92,72.14Z"/><path class="cls-2" d="M114.74,73.75a7.36,7.36,0,0,0,2.57.64v.53l-14-.1V69.89a39.76,39.76,0,0,1-19.7,5.57,26,26,0,0,1-10.38-2A17.26,17.26,0,0,1,66,68a13.12,13.12,0,0,1-2.63-8,14.59,14.59,0,0,1,6-12.2q6-4.61,17.29-7.28,13.49-3,16-7.81a14.77,14.77,0,0,0-3.9-8.14c-2-1.93-5-2.9-8.94-2.89a11.41,11.41,0,0,0-5.14,1.13,3.58,3.58,0,0,0-2.24,3.37,4.17,4.17,0,0,0,.21,1.49,7.22,7.22,0,0,1,.35,1,2.52,2.52,0,0,1-1.18,2.19,4.7,4.7,0,0,1-2.67.8,4.41,4.41,0,0,1-2.68-.8,2.68,2.68,0,0,1-1.07-2.3q0-4.6,4.61-6.37a30.54,30.54,0,0,1,11-1.77q9.21,0,14,2.84a13.46,13.46,0,0,1,6.26,7.65,42.31,42.31,0,0,1,1.5,12.31l-.11,28.9A4.1,4.1,0,0,0,114.74,73.75ZM74.66,67A13.56,13.56,0,0,0,80,71.71a16.83,16.83,0,0,0,8,1.82q7.4,0,15.31-4.71l.11-25.58a64.24,64.24,0,0,0-.43-8.77q-2.46,4-12.42,6.74-9,2.57-13.7,7.49a15.26,15.26,0,0,0-4.28,12A13,13,0,0,0,74.66,67Z"/><path class="cls-2" d="M149.63,20.87A8.1,8.1,0,0,1,155,22.48,4.59,4.59,0,0,1,156.91,26a3,3,0,0,1-1,2.3,3.75,3.75,0,0,1-2.68.91c-1.49,0-2.46-.32-2.89-1a6.68,6.68,0,0,1-.85-2.89,6.21,6.21,0,0,0-.48-2.25c-.26-.5-.84-.75-1.77-.75-2.21,0-4.66,1.3-7.33,3.91a35.6,35.6,0,0,0-6.37,8.08l.11,36.28A3.85,3.85,0,0,0,134.5,73c.57.75,1.93,1.2,4.07,1.34v.53H119.45v-.53c3.28-.21,4.93-1.36,4.93-3.43l-.11-46.56a3.57,3.57,0,0,0-2.14-1.76,7.76,7.76,0,0,0-2.68-.7v-.53l14.13.1V32.75a31.15,31.15,0,0,1,6.31-7.65c2.72-2.46,5.32-3.84,7.82-4.12A13.74,13.74,0,0,1,149.63,20.87Z"/><path class="cls-2" d="M200.8,62.83a19.92,19.92,0,0,1-5.25,8.29c-2.56,2.54-6.53,4-11.88,4.55-1.57.15-2.67.22-3.31.22a24.53,24.53,0,0,1-14.29-4.18,26.87,26.87,0,0,1-9.21-10.86,32.66,32.66,0,0,1-3.16-14.08,30.52,30.52,0,0,1,2.47-12.25A23.29,23.29,0,0,1,163.66,25a24.92,24.92,0,0,1,12.41-4.65c1.57-.15,2.75-.22,3.54-.22a22.06,22.06,0,0,1,10.16,2.25,17.71,17.71,0,0,1,6.85,5.94,16.3,16.3,0,0,1,2.79,7.76q-6.54,3-17.45,8.35T164.19,53.3a33.77,33.77,0,0,0,7.23,14.56,15.8,15.8,0,0,0,12.25,5.78q7.28.1,11.3-3.37a14.54,14.54,0,0,0,5-7.44ZM166.92,27.51Q163,33.82,163,43.13a43.88,43.88,0,0,0,1,9.21l29.2-14.66a20.92,20.92,0,0,0-2.25-8,16.77,16.77,0,0,0-5.19-6.15,12.41,12.41,0,0,0-7.44-2.36A12.61,12.61,0,0,0,166.92,27.51Z"/><path class="cls-2" d="M252.92,74.39v.53h-19v-.53c2.14-.14,3.5-.59,4.07-1.34a3.85,3.85,0,0,0,.85-2.41V44.21q0-11.35-1.82-16.49t-7-5.14a13.14,13.14,0,0,0-7.82,2.63,20.25,20.25,0,0,0-6.1,7.54l.11,37.89a3.84,3.84,0,0,0,.86,2.41c.57.75,1.92,1.2,4.06,1.34v.53H202v-.53c3.29-.21,4.93-1.36,4.93-3.43l-.11-46.56a3.57,3.57,0,0,0-2.14-1.76,7.54,7.54,0,0,0-2.68-.7v-.53l14.13.1v9q6.1-9.1,14.24-9.64l2.25-.11q6.63,0,10,2.84a13.87,13.87,0,0,1,4.5,7.81,56.07,56.07,0,0,1,1,12.8L248,71C248,73,249.64,74.18,252.92,74.39Z"/><path class="cls-2" d="M265.07,74.82a21,21,0,0,1-5.51-2.14l-3,2.57-1.5-13h1.07a16.47,16.47,0,0,0,6.32,9.16,18.41,18.41,0,0,0,10.92,3.26,11.69,11.69,0,0,0,8.4-3.1,10,10,0,0,0,3.26-7.5,11.59,11.59,0,0,0-2-6.42A11.82,11.82,0,0,0,279,53.8a75.81,75.81,0,0,0-7.7-3.86,86.63,86.63,0,0,1-8.35-4.17,18.21,18.21,0,0,1-5.25-4.6,10.7,10.7,0,0,1-2.14-6.74,11.85,11.85,0,0,1,5.67-10,23.56,23.56,0,0,1,13.6-3.8,27,27,0,0,1,5.88.59c1.79.39,3.76.91,5.89,1.55l2.57-1.71,2.68,10.48h-1.39a13.57,13.57,0,0,0-4.61-7.17,12.39,12.39,0,0,0-8-2.78,15.1,15.1,0,0,0-7.7,1.82,10.82,10.82,0,0,0-5.46,11A7.5,7.5,0,0,0,268.23,40a73.39,73.39,0,0,0,10.06,5.35,99.39,99.39,0,0,1,9.9,5.09,13.36,13.36,0,0,1,5.19,5.4,13,13,0,0,1,1.29,5.67,12,12,0,0,1-2.3,7,16.22,16.22,0,0,1-7,5.29,28.47,28.47,0,0,1-11.4,2A33.76,33.76,0,0,1,265.07,74.82Z"/><path class="cls-2" d="M374.73,70.75a3.85,3.85,0,0,0,.85,2.41c.57.75,1.93,1.19,4.07,1.34V75H360.49v-.5c2.14-.15,3.5-.59,4.07-1.34a3.85,3.85,0,0,0,.85-2.41V35.54H334.59V70.75a3.85,3.85,0,0,0,.85,2.41c.57.75,1.93,1.19,4.07,1.34V75H320.35v-.5c2.14-.15,3.5-.59,4.07-1.34a3.9,3.9,0,0,0,.86-2.41V4.28a3.79,3.79,0,0,0-.86-2.46c-.57-.71-1.93-1.14-4.07-1.28V0h19.16V.54c-2.14.14-3.5.57-4.07,1.28a3.85,3.85,0,0,0-.85,2.46V34.47h30.82V4.28a4,4,0,0,0-.85-2.41C364,1.12,362.63.68,360.49.54V0h19.16V.54c-2.14.14-3.5.57-4.07,1.28a3.85,3.85,0,0,0-.85,2.46Z"/><path class="cls-2" d="M409.62,76.32a26.61,26.61,0,0,1-15-4.18A27,27,0,0,1,385,61.28a31.82,31.82,0,0,1-3.26-14.08,30,30,0,0,1,3-13.38,24,24,0,0,1,9.21-10Q400.2,20,409.19,20a25.87,25.87,0,0,1,24.3,15,32.15,32.15,0,0,1,3.21,14,30.4,30.4,0,0,1-2.57,12.36,25,25,0,0,1-7.65,9.8A24.47,24.47,0,0,1,414,76,30.52,30.52,0,0,1,409.62,76.32Zm14.18-9.1A35.52,35.52,0,0,0,427.28,51,45.1,45.1,0,0,0,425,36.66a27.57,27.57,0,0,0-6.63-11.13,14.43,14.43,0,0,0-10.49-4.34,13.48,13.48,0,0,0-12.2,6.69q-4.19,6.69-4.18,16.43A44.28,44.28,0,0,0,394,59a29.29,29.29,0,0,0,7.07,11.56A14.82,14.82,0,0,0,411.76,75a17,17,0,0,0,2.14-.11Q420.32,74.07,423.8,67.22Z"/><path class="cls-2" d="M487,25.47,487.11,72a3.52,3.52,0,0,0,2.14,1.77,7.82,7.82,0,0,0,2.68.7V75l-14-.11v-9Q472,75,463.67,75.57l-2,.1q-6.65,0-10.12-2.83A13.86,13.86,0,0,1,446.87,65a53.3,53.3,0,0,1-1.07-12.79l.1-26.76c0-2.06-1.64-3.21-4.92-3.42v-.54h19.16V22c-2.14.14-3.5.57-4.07,1.28a3.89,3.89,0,0,0-.86,2.47V52.23q0,11.35,1.82,16.49t7,5.13a13.13,13.13,0,0,0,7.82-2.62,20.25,20.25,0,0,0,6.1-7.54L477.8,25.8a3.89,3.89,0,0,0-.86-2.47c-.57-.71-1.92-1.14-4.06-1.28v-.54h19.05v.54C488.65,22.26,487,23.41,487,25.47Z"/><path class="cls-2" d="M504.08,74.82a21.07,21.07,0,0,1-5.52-2.14l-3,2.57-1.5-13h1.07a16.5,16.5,0,0,0,6.31,9.16,18.48,18.48,0,0,0,10.92,3.26,11.69,11.69,0,0,0,8.4-3.1,10,10,0,0,0,3.27-7.5,11.59,11.59,0,0,0-2-6.42A11.82,11.82,0,0,0,518,53.8a75.82,75.82,0,0,0-7.73-3.8,86.63,86.63,0,0,1-8.35-4.17,18,18,0,0,1-5.24-4.6,10.7,10.7,0,0,1-2.14-6.74,11.85,11.85,0,0,1,5.67-10,23.55,23.55,0,0,1,13.59-3.8,27.13,27.13,0,0,1,5.89.59c1.78.39,3.75.91,5.89,1.55l2.57-1.71,2.67,10.48h-1.39a13.65,13.65,0,0,0-4.6-7.17,12.39,12.39,0,0,0-8-2.78,15.11,15.11,0,0,0-7.71,1.82,10.87,10.87,0,0,0-4.49,4.76,11,11,0,0,0-1,6.27,7.49,7.49,0,0,0,3.64,5.5,74.09,74.09,0,0,0,10.07,5.35,99.39,99.39,0,0,1,9.9,5.09,13.36,13.36,0,0,1,5.19,5.4,13.09,13.09,0,0,1,1.28,5.67,12,12,0,0,1-2.3,7,16.07,16.07,0,0,1-7,5.29,28.47,28.47,0,0,1-11.4,2A33.73,33.73,0,0,1,504.08,74.82Z"/><path class="cls-2" d="M585.05,62.83a19.92,19.92,0,0,1-5.25,8.29q-3.85,3.81-11.88,4.55c-1.57.15-2.67.22-3.32.22a24.53,24.53,0,0,1-14.29-4.18,26.84,26.84,0,0,1-9.2-10.86A32.47,32.47,0,0,1,538,46.77a30.68,30.68,0,0,1,2.46-12.25A23.26,23.26,0,0,1,548,25a24.92,24.92,0,0,1,12.41-4.65c1.57-.15,2.75-.22,3.53-.22A22.07,22.07,0,0,1,574,22.37a17.71,17.71,0,0,1,6.85,5.94,16.3,16.3,0,0,1,2.79,7.76q-6.54,3-17.45,8.35T548.44,53.3a33.77,33.77,0,0,0,7.23,14.56,15.74,15.74,0,0,0,12.25,5.78q7.27.1,11.29-3.37a14.54,14.54,0,0,0,5-7.44ZM551.17,27.51q-3.92,6.31-3.91,15.62a43.88,43.88,0,0,0,1,9.21l29.22-14.66a21.29,21.29,0,0,0-2.25-8A16.83,16.83,0,0,0,570,23.55a12.41,12.41,0,0,0-7.44-2.36A12.6,12.6,0,0,0,551.17,27.51Z"/><path class="cls-2" d="M171.1,13.48S182.55,10.41,189.52,2l4.72,5.77S178,15.08,174.56,15.08Z"/></g></g></g></g></svg>