<?xml version="1.0" encoding="UTF-8"?>
<svg xmlns="http://www.w3.org/2000/svg" xmlns:xlink="http://www.w3.org/1999/xlink" width="756.46pt" height="756.46pt" viewBox="0 0 756.46 756.46" version="1.1">
<g id="surface1">
<path style=" stroke:none;fill-rule:evenodd;fill:rgb(0%,0%,0%);fill-opacity:1;" d="M 211.871094 0.140625 L 0.144531 0.140625 L 0.144531 211.871094 L 211.871094 211.871094 Z M 332.859375 60.636719 L 363.105469 60.636719 L 363.105469 0.140625 L 242.121094 0.140625 L 242.121094 60.636719 L 272.367188 60.636719 L 272.367188 90.882813 L 302.613281 90.882813 L 302.613281 60.636719 L 272.367188 60.636719 L 272.367188 30.390625 L 332.859375 30.390625 Z M 151.378906 272.363281 L 121.132813 272.363281 L 121.132813 302.613281 L 181.625 302.613281 L 181.625 332.859375 L 151.378906 332.859375 L 151.378906 363.105469 L 121.132813 363.105469 L 121.132813 332.859375 L 90.886719 332.859375 L 90.886719 242.117188 L 0.144531 242.117188 L 0.144531 272.363281 L 60.636719 272.363281 L 60.636719 363.105469 L 30.390625 363.105469 L 30.390625 332.859375 L 0.144531 332.859375 L 0.144531 363.105469 L 30.390625 363.105469 L 30.390625 423.597656 L 0.144531 423.597656 L 0.144531 453.847656 L 60.636719 453.847656 L 60.636719 484.09375 L 0.144531 484.09375 L 0.144531 514.339844 L 60.636719 514.339844 L 60.636719 484.09375 L 90.886719 484.09375 L 90.886719 514.339844 L 121.132813 514.339844 L 121.132813 484.09375 L 90.886719 484.09375 L 90.886719 453.847656 L 121.132813 453.847656 L 121.132813 423.597656 L 60.636719 423.597656 L 60.636719 393.351563 L 151.378906 393.351563 L 151.378906 484.09375 L 181.625 484.09375 L 181.625 514.339844 L 211.871094 514.339844 L 211.871094 484.09375 L 181.625 484.09375 L 181.625 453.847656 L 242.121094 453.847656 L 242.121094 544.585938 L 272.367188 544.585938 L 272.367188 574.835938 L 242.121094 574.835938 L 242.121094 605.082031 L 272.367188 605.082031 L 272.367188 635.328125 L 302.613281 635.328125 L 302.613281 665.574219 L 242.121094 665.574219 L 242.121094 756.316406 L 302.613281 756.316406 L 302.613281 695.820313 L 363.105469 695.820313 L 363.105469 665.574219 L 332.859375 665.574219 L 332.859375 605.082031 L 393.355469 605.082031 L 393.355469 665.574219 L 453.847656 665.574219 L 453.847656 635.328125 L 514.34375 635.328125 L 514.34375 665.574219 L 484.09375 665.574219 L 484.09375 695.820313 L 453.847656 695.820313 L 453.847656 726.070313 L 484.09375 726.070313 L 484.09375 756.316406 L 514.34375 756.316406 L 514.34375 726.070313 L 544.589844 726.070313 L 544.589844 756.316406 L 574.835938 756.316406 L 574.835938 726.070313 L 635.328125 726.070313 L 635.328125 756.316406 L 665.578125 756.316406 L 665.578125 726.070313 L 635.328125 726.070313 L 635.328125 665.574219 L 695.824219 665.574219 L 695.824219 695.820313 L 756.316406 695.820313 L 756.316406 665.574219 L 726.070313 665.574219 L 726.070313 635.328125 L 756.316406 635.328125 L 756.316406 514.339844 L 726.070313 514.339844 L 726.070313 484.09375 L 695.824219 484.09375 L 695.824219 514.339844 L 665.578125 514.339844 L 665.578125 544.585938 L 635.328125 544.585938 L 635.328125 484.09375 L 574.835938 484.09375 L 574.835938 453.847656 L 544.589844 453.847656 L 544.589844 484.09375 L 514.34375 484.09375 L 514.34375 453.847656 L 484.09375 453.847656 L 484.09375 423.597656 L 514.34375 423.597656 L 514.34375 363.105469 L 484.09375 363.105469 L 484.09375 393.351563 L 453.847656 393.351563 L 453.847656 332.859375 L 484.09375 332.859375 L 484.09375 302.613281 L 514.34375 302.613281 L 514.34375 272.363281 L 544.589844 272.363281 L 544.589844 302.613281 L 574.835938 302.613281 L 574.835938 332.859375 L 544.589844 332.859375 L 544.589844 423.597656 L 605.082031 423.597656 L 605.082031 453.847656 L 695.824219 453.847656 L 695.824219 423.597656 L 726.070313 423.597656 L 726.070313 453.847656 L 756.316406 453.847656 L 756.316406 363.105469 L 726.070313 363.105469 L 726.070313 393.351563 L 695.824219 393.351563 L 695.824219 423.597656 L 605.082031 423.597656 L 605.082031 393.351563 L 574.835938 393.351563 L 574.835938 332.859375 L 605.082031 332.859375 L 605.082031 302.613281 L 574.835938 302.613281 L 574.835938 272.363281 L 635.328125 272.363281 L 635.328125 363.105469 L 665.578125 363.105469 L 665.578125 332.859375 L 695.824219 332.859375 L 695.824219 302.613281 L 726.070313 302.613281 L 726.070313 332.859375 L 756.316406 332.859375 L 756.316406 242.117188 L 695.824219 242.117188 L 695.824219 302.613281 L 665.578125 302.613281 L 665.578125 272.363281 L 635.328125 272.363281 L 635.328125 242.117188 L 514.34375 242.117188 L 514.34375 60.636719 L 484.09375 60.636719 L 484.09375 242.117188 L 453.847656 242.117188 L 453.847656 302.613281 L 393.355469 302.613281 L 393.355469 272.363281 L 423.601563 272.363281 L 423.601563 211.871094 L 453.847656 211.871094 L 453.847656 121.128906 L 423.601563 121.128906 L 423.601563 151.378906 L 393.355469 151.378906 L 393.355469 90.882813 L 423.601563 90.882813 L 423.601563 60.636719 L 453.847656 60.636719 L 453.847656 0.140625 L 393.355469 0.140625 L 393.355469 90.882813 L 332.859375 90.882813 L 332.859375 151.378906 L 272.367188 151.378906 L 272.367188 121.128906 L 242.121094 121.128906 L 242.121094 302.613281 L 272.367188 302.613281 L 272.367188 332.859375 L 211.871094 332.859375 L 211.871094 302.613281 L 181.625 302.613281 L 181.625 272.363281 L 211.871094 272.363281 L 211.871094 242.117188 L 151.378906 242.117188 Z M 756.316406 0.140625 L 544.589844 0.140625 L 544.589844 211.871094 L 756.316406 211.871094 Z M 181.625 30.390625 L 30.390625 30.390625 L 30.390625 181.625 L 181.625 181.625 Z M 726.070313 30.390625 L 574.835938 30.390625 L 574.835938 181.625 L 726.070313 181.625 Z M 151.378906 60.636719 L 60.636719 60.636719 L 60.636719 151.378906 L 151.378906 151.378906 Z M 695.824219 60.636719 L 605.082031 60.636719 L 605.082031 151.378906 L 695.824219 151.378906 Z M 332.859375 151.378906 L 363.105469 151.378906 L 363.105469 211.871094 L 393.355469 211.871094 L 393.355469 242.117188 L 332.859375 242.117188 L 332.859375 272.363281 L 363.105469 272.363281 L 363.105469 332.859375 L 332.859375 332.859375 L 332.859375 302.613281 L 272.367188 302.613281 L 272.367188 272.363281 L 302.613281 272.363281 L 302.613281 211.871094 L 332.859375 211.871094 Z M 272.367188 181.625 L 302.613281 181.625 L 302.613281 211.871094 L 272.367188 211.871094 Z M 393.355469 211.871094 L 393.355469 181.625 L 423.601563 181.625 L 423.601563 211.871094 Z M 484.09375 272.363281 L 484.09375 242.117188 L 514.34375 242.117188 L 514.34375 272.363281 Z M 181.625 363.105469 L 181.625 332.859375 L 211.871094 332.859375 L 211.871094 363.105469 Z M 272.367188 332.859375 L 302.613281 332.859375 L 302.613281 363.105469 L 272.367188 363.105469 Z M 393.355469 363.105469 L 393.355469 332.859375 L 423.601563 332.859375 L 423.601563 363.105469 Z M 393.355469 514.339844 L 423.601563 514.339844 L 423.601563 453.847656 L 393.355469 453.847656 L 393.355469 484.09375 L 332.859375 484.09375 L 332.859375 453.847656 L 363.105469 453.847656 L 363.105469 423.597656 L 332.859375 423.597656 L 332.859375 363.105469 L 393.355469 363.105469 L 393.355469 423.597656 L 453.847656 423.597656 L 453.847656 484.09375 L 484.09375 484.09375 L 484.09375 605.082031 L 453.847656 605.082031 L 453.847656 544.585938 L 393.355469 544.585938 Z M 211.871094 393.351563 L 181.625 393.351563 L 181.625 423.597656 L 211.871094 423.597656 Z M 302.613281 423.597656 L 302.613281 453.847656 L 242.121094 453.847656 L 242.121094 393.351563 L 272.367188 393.351563 L 272.367188 423.597656 Z M 363.105469 514.339844 L 332.859375 514.339844 L 332.859375 574.835938 L 363.105469 574.835938 Z M 605.082031 514.339844 L 514.34375 514.339844 L 514.34375 605.082031 L 605.082031 605.082031 Z M 695.824219 514.339844 L 726.070313 514.339844 L 726.070313 605.082031 L 695.824219 605.082031 L 695.824219 635.328125 L 665.578125 635.328125 L 665.578125 605.082031 L 635.328125 605.082031 L 635.328125 574.835938 L 665.578125 574.835938 L 665.578125 544.585938 L 695.824219 544.585938 Z M 211.871094 756.316406 L 211.871094 544.585938 L 0.144531 544.585938 L 0.144531 756.316406 Z M 574.835938 544.585938 L 544.589844 544.585938 L 544.589844 574.835938 L 574.835938 574.835938 Z M 181.625 574.835938 L 30.390625 574.835938 L 30.390625 726.070313 L 181.625 726.070313 Z M 393.355469 605.082031 L 393.355469 574.835938 L 423.601563 574.835938 L 423.601563 605.082031 Z M 151.378906 605.082031 L 60.636719 605.082031 L 60.636719 695.820313 L 151.378906 695.820313 Z M 574.835938 726.070313 L 544.589844 726.070313 L 544.589844 635.328125 L 574.835938 635.328125 L 574.835938 665.574219 L 605.082031 665.574219 L 605.082031 695.820313 L 574.835938 695.820313 Z M 393.355469 726.070313 L 332.859375 726.070313 L 332.859375 756.316406 L 423.601563 756.316406 L 423.601563 695.820313 L 393.355469 695.820313 Z M 756.316406 726.070313 L 726.070313 726.070313 L 726.070313 756.316406 L 756.316406 756.316406 L 756.316406 726.070313 "/>
</g>
</svg>
