<svg xmlns="http://www.w3.org/2000/svg" viewBox="0 0 520.7 63.4"><radialGradient id="a" cx="-10.0514" cy="22.8509" r="61.7115" gradientUnits="userSpaceOnUse"><stop offset=".1698" stop-color="#9ad1f0"/><stop offset=".573" stop-color="#0f99d6"/><stop offset="1" stop-color="#334e9d"/></radialGradient><radialGradient id="b" cx="44.1366" cy="18.69" r="42.8813" gradientUnits="userSpaceOnUse"><stop offset="0" stop-color="#e7e67c"/><stop offset=".4719" stop-color="#b1cc2b"/><stop offset=".7303" stop-color="#6cb640"/><stop offset="1" stop-color="#175135"/></radialGradient><radialGradient id="c" cx="47.4491" cy="1.0767" r="37.3998" gradientUnits="userSpaceOnUse"><stop offset="0" stop-color="#eff0b8"/><stop offset=".4719" stop-color="#f2bc22"/><stop offset=".7303" stop-color="#e94e2d"/><stop offset="1" stop-color="#c72623"/></radialGradient><path fill="url(#a)" d="M15.8 51.5C3.4 39 2.9 18.6 16.2 5.3c1.9-1.9 5-4 7.1-5.3-4.6 1.5-10.1 4.6-13.8 8.3C-3.2 21-3.2 41.5 9.5 54.1c11.4 11.4 30.4 12 43.1 2.9-12.4 5.9-27.1 4.1-36.8-5.5z"/><path fill="url(#b)" d="M23.6 42.2c6.4-12.7 1-23.7-7-31.2C8.5 21.9 8.7 37.4 19 47.6c10.9 10.9 28.5 10.9 39.3 0 5-5 7-10.8 7.7-17-23.2-7-42.4 11.6-42.4 11.6z"/><path fill="url(#c)" d="M31.7 29.4c14.8-7.4 25.9-4.8 34.7-1.5 0-7.1-2.7-14.2-8.1-19.6C47.4-2.6 29.8-2.6 18.9 8.2l-.7.7C30.3 18 31.7 29.4 31.7 29.4z"/><path fill="#D95A2D" d="M105.4 10c0 1.5-.4 2.7-1 3.4h-.3c-.5.1-1.1-.3-1.9-.6-.9-.4-2-.7-3.2-1-.7-.1-1.4-.1-2.2-.1-.5 0-1 0-1.4.1-6.3.5-11.6 6-11.6 19.1 0 12 4.6 17.3 12.5 17.3 3.3 0 6.7-1 8.2-2 .3.5.5 1.2.5 2.1-.1 1.2-.6 2.3-1.6 3.1-1.3 1.1-4.4 2.2-8.1 2.2-11 0-18-5.4-18-22.4 0-8.8 1.9-15.2 5.8-19.5 3.7-3.9 8.2-5.2 12.8-5.2 5.8.1 8.9 2.2 9.5 3.5zM110.6 38.6v-26c0-2.9-.1-4.8-.1-6.4.8-1.5 2.6-1.8 5.4-1.8.4.7.5 1.6.5 4.5v14.4c1.4-1.3 2.9-2.2 4.3-2.8 1.2-.5 2.7-.8 4.4-.8 6.6 0 8.5 3.7 8.5 12.8v10c0 3.7 0 6.9.1 9.4-.7.7-1.5.8-5.6.8-.3-.8-.5-1.8-.5-3.1V33.2c0-1.3 0-2.2-.1-2.9-.2-4.3-1.9-5.4-4.4-5.4-2.7 0-5.1 1.5-6.7 3.1v20.7c0 1.4-.1 2.6-.7 3.5-.9.7-1.7.7-5.3.7.2-4.1.2-8.7.2-14.3zM141.2 23.8c0-.3.1-.5.1-.7 1.4-1.4 5.5-3.1 10.1-3.3 1.1 0 1.2 0 2.4.1 5 .3 6.7 3.7 6.7 9.5v3.1c0 4.7-.1 10.1-.1 13.7 0 0-.3 3.5 1.9 3.1-.1 1-.1 2.1-.1 2.5-.5.7-1.8 1.5-3.6 1.6-1.6 0-3.4-1.5-4.1-2.4-.4.4-1.2 1.2-2 1.6-1.5.7-3.1.9-5 .9-4.4 0-8.5-2.7-8.5-9 0-8.4 7.4-10.5 11.5-10.9.7-.1 1.3-.1 1.9-.1.9 0 1.6.1 2.2.2v-3.9c0-3.1-.3-4.8-3.3-4.8-2.4 0-5.2 1-7.1 1.8-.7.3-1.4.5-2 .5-.6-.7-.9-1.9-1-2.7v-.8zm13.4 18.5v-4.8c-.4-.1-.9-.1-1.4-.1-.8 0-1.6.1-2.2.1-3.3.5-6.1 2-6.1 6.3 0 3.5 1.5 4.7 3.6 4.8h.5c2 0 4.3-1 5.2-2.1.1-.1.1-.5.2-1 .2-.7.2-1.8.2-3.2zM189.6 52.7c-.5.1-1.2.1-2.4.1h-2.8c.1-3.5.1-7.6.1-12.7v-8.2c0-5.3-1.2-7.2-4.6-7.2-2.5 0-4.5 1.3-5.9 2.9v22c0 1.2-.1 1.8-.7 2.5-.9.7-1.6.7-5.2.7.1-3.5.1-7.7.1-12.8V27.8c0-2.2-.3-3.7-.8-5.1.3-.4 1.2-.9 2.7-1.6.2-.1.4-.1.5-.1 1.3 0 1.8.9 2.1 2 1.6-1.4 3.3-2.2 4.7-2.7 1.4-.5 2.7-.7 4.3-.7.3 0 .8 0 1.2.1 3.1.2 4.8 1.4 6 3.4 1.6-1.4 3.3-2.2 4.9-2.7 1.4-.5 2.7-.7 4.1-.7.5 0 1 0 1.4.1 6 .5 7.4 4.9 7.4 11.7v11.4c0 3.4 0 6.5.1 8.9-.8.6-1.8.8-5.6.8-.3-.5-.5-1.2-.5-2.2V32c0-5.3-1.1-7.2-4.6-7.2-2.4 0-4.4 1.3-5.8 2.9v24c.2.6-.2.9-.7 1zM214.3 47.8V12.9c0-3-.1-5-.1-6.6.7-1.6 2.7-1.8 5.4-1.8.4 1 .5 2.1.5 5.2v12.6c1.9-1.4 4.6-2.5 7.9-2.5 6.3 0 11.1 4.1 11.1 14.1 0 9.4-3.1 14.4-6.6 17-2.8 1.9-6.2 2.5-8.9 2.5-3.7 0-6.8-.7-8.7-1.8-.4-1.1-.6-2.3-.6-3.8zm5.9.3c.9.5 2.4.9 4.1.9 3.9 0 8.5-3.1 8.5-14.1 0-7.6-2.7-10.3-7.1-10.3-1.8 0-3.9.6-5.4 1.9v21.6zM251.1 27.7v21.7c0 1.2-.1 2-.6 2.7-.9.6-1.7.7-5.4.7.1-3.7.1-8 .1-13.3l.1-11.5c0-2.2-.4-3.7-.9-5.1.4-.4 1.2-.9 2.8-1.6.2-.1.3-.1.5-.1 1.2 0 1.8.9 2.1 2 1.6-1.4 3.2-2.2 4.6-2.7 1.3-.4 2.4-.7 3.7-.5 1.8.2 2.7.7 2.9 1.7 0 1-.3 2.7-1.1 3.9-.3.1-.3.1-.6.1-.5 0-1.1-.1-1.6-.1-.5-.1-.9-.1-1.2-.1-2.3 0-4.1.8-5.4 2.2zM285.3 46.8c.2.6.3 1.9.4 2.7-.1 1.4-2 2.8-3.9 3.3-1 .3-3.1.7-5.2.7-3.2 0-6.6-.6-9.2-3.3-2.4-2.4-3.6-6.7-3.6-12.4 0-13.1 5.6-18 13.1-18 6.1 0 9.2 3.7 9.9 9.6.1 1 .1 2.1.1 3.3 0 1.4-.1 2.9-.4 4-.7.5-2.9 1.3-4.8 1.6-2.1.3-5.6.4-8.8.4-1.1 0-2 0-3.1-.1.1 7.5 3.3 9.9 8 9.9 2.8-.1 5.4-.5 7.5-1.7zm-9.8-22.5c-2.7.4-5.3 3.5-5.6 10.1h2.6c2.7 0 5.4-.1 6.7-.2.6-.1 1.2-.1 1.6-.4.2-.5.3-1.4.3-2.2 0-.5-.1-1-.1-1.5-.3-3.8-1.8-5.8-4.9-5.8-.2-.1-.4-.1-.6 0zM303.4 19.9c4.1.3 5.8 1.9 6.1 2.7 0 .9-.5 2.3-1 3.1-1-.2-2-.3-3.1-.7-1-.4-2.1-.6-3.3-.6-2.8 0-4.6 1.4-4.6 3.5 0 1.2.5 2.2 2.2 3.5 1.7 1.4 4.8 3.4 6.9 5.1 2.9 2.3 4 4.6 4 7.4 0 6.3-5.1 9.5-11.4 9.5-4.2 0-7.8-1.2-8.5-2.9 0-1.1.4-2.5 1.1-3.4h.3c.5 0 1.2.2 1.8.5 1.4.6 3.3 1.1 5.2 1.1.4 0 .9-.1 1.3-.1 2.4-.3 3.9-1.8 3.9-4.1 0-1.6-.8-2.9-2.9-4.4-1.8-1.3-3.9-2.9-5.5-4.1l-1.6-1.4c-2-2-3-4.1-3-6.4 0-5.2 4.2-8.4 10.3-8.4.6 0 1.3.1 1.8.1z"/><path fill="#5EAC39" d="M316.1 38.1c-.5 0-1-.1-1.6-.3.3-3.2.8-4.7 1.8-4.7 3.7-.3 8.6-1 11.8-1.4.5.1 1.1.3 1.5.5-.2 2.5-.9 4.6-2.4 4.8-3.1.5-7.9 1.1-11.1 1.1z"/><path fill="#2990CF" d="M358.3 49.3V31c-1.6.1-3.5.1-7.3.1h-8.8v17.3c0 1.6-.2 2.7-.9 3.7-.5.7-1.6.7-5.2.7.1-3.3.1-7.2.1-12V18.4c0-4.2-.1-7.5-.1-10.1.7-.7 2.1-.8 5.4-.8.5.8.7 1.8.7 4.2v14.6h16.2V12.1c0-1.7.2-2.9.7-3.9.7-.6 1.8-.7 5.4-.7-.1 3.3-.1 7.2-.1 12V42c0 4.3.1 7.3.1 10-.6.7-2.2.8-5.6.8-.4-1-.6-2.1-.6-3.5zM383.4 53.5c-8.4 0-13.1-5-13.1-16.7s5.5-17 13.3-17c8.6 0 12.9 5.6 12.9 16.6 0 11.4-5.6 17.1-13.1 17.1zm.1-4.4c3.6 0 6.7-3.1 6.7-12.5 0-8.9-2.7-12.2-6.7-12.2h-.1c-3.6 0-6.8 3.3-6.8 12.2 0 9.3 2.9 12.5 6.9 12.5zM418.3 49c0 .6 0 1.3-.1 1.9-.1.5-.5 1-1 1.4-1.3.8-3.6 1.3-5.7 1.3-6.3 0-7.5-5.9-7.5-11.4V25.3c-2.2 0-3.3-.3-4.1-.7 0-2.1.1-1.8.6-2.4 1-.8 3.1-1 4.1-1.5l.3-6.1c.5-1.4 1.9-2.5 5.1-2.7-.1 3.1-.1 6-.1 8.8h8.8c-.2 3.4-.6 4.1-1.6 4.4-.5.1-1.1.1-1.6.1-1.8.1-2.7.1-5.6.1-.1 3.1-.1 6.3-.1 9.2 0 3 .1 5.6.1 7.9.3 3.8.9 6.5 3.6 6.5 1 .1 4.1-.9 4.7-1.4.1.4.1.9.1 1.5zM443.8 46.8c.2.6.3 1.9.4 2.7-.1 1.4-2 2.8-3.9 3.3-1 .3-3.1.7-5.2.7-3.2 0-6.6-.6-9.2-3.3-2.4-2.4-3.6-6.7-3.6-12.4 0-13.1 5.6-18 13.1-18 6.1 0 9.2 3.7 9.9 9.6.1 1 .1 2.1.1 3.3 0 1.4-.1 2.9-.4 4-.7.5-2.9 1.3-4.8 1.6-2.1.3-5.6.4-8.8.4-1.1 0-2 0-3.1-.1.1 7.5 3.3 9.9 8 9.9 2.8-.1 5.3-.5 7.5-1.7zM434 24.3c-2.7.4-5.3 3.5-5.6 10.1h2.6c2.7 0 5.4-.1 6.7-.2.6-.1 1.2-.1 1.6-.4.2-.5.3-1.4.3-2.2 0-.5-.1-1-.1-1.5-.3-3.8-1.8-5.8-4.9-5.8-.2-.1-.4-.1-.6 0zM461.9 19.9c4.1.3 5.8 1.9 6.1 2.7 0 .9-.5 2.3-1 3.1-1-.2-2-.3-3.1-.7-1-.4-2.1-.6-3.3-.6-2.8 0-4.6 1.4-4.6 3.5 0 1.2.5 2.2 2.2 3.5 1.7 1.4 4.8 3.4 6.9 5.1 2.9 2.3 4 4.6 4 7.4 0 6.3-5.1 9.5-11.4 9.5-4.2 0-7.8-1.2-8.5-2.9 0-1.1.4-2.5 1.1-3.4h.3c.5 0 1.2.2 1.8.5 1.4.6 3.3 1.1 5.2 1.1.4 0 .9-.1 1.3-.1 2.4-.3 3.9-1.8 3.9-4.1 0-1.6-.8-2.9-2.9-4.4-1.8-1.3-3.9-2.9-5.5-4.1l-1.6-1.4c-2-2-3-4.1-3-6.4 0-5.2 4.2-8.4 10.3-8.4.5 0 1.2.1 1.8.1z"/><path fill="#5EAC39" d="M477.2 45.2c3.1 0 3.6 1.3 3.5 3.8-.1 2.4-.8 4.2-4 4.2-2.7 0-3.5-1.3-3.5-4.1-.1-2.5 1.2-3.9 4-3.9zM505.7 6.8c-.1.5-.1 1-.3 1.5-.3.6-.5 1-.8 1.4-.2.1-.8-.1-1.4-.3-.7-.2-1.8-.3-2.7-.3-3.1 0-5.8 1.4-6.1 7.2-.1 1.4-.1 2.9-.1 4.4h3.7c1.5 0 3 0 3.9-.1-.2 3.2-.5 3.9-1.5 4.2-.1.1-.4.2-.7.3-1.4.1-3.3.1-5.4.1 0 7.7.1 18.7.1 26 0 .3 0 1.1-.5 1.3-1.1.2-3.1.3-3.9.3-.5 0-1-.1-1.5-.1-.1-.4-.1-1-.1-1.6 0-2.7.1-5.5.1-8.3 0-5.6-.1-11.4-.1-17.5-2.2-.1-3.5-.3-4.2-.8.3-2.5.5-2.9 1.6-3.1.5-.1 1.4-.3 2.7-.6 0-1.8.1-3.5.3-5.1.7-9 7-11.2 11.8-11.2 2.8 0 4.5.6 5.1 1.3.1.2 0 .6 0 1zM510.8 27.7v21.7c0 1.2-.1 2-.6 2.7-.9.6-1.7.7-5.4.7.1-3.7.1-8 .1-13.3L505 28c0-2.2-.4-3.7-.9-5.1.4-.4 1.2-.9 2.8-1.6.2-.1.3-.1.5-.1 1.2 0 1.8.9 2.1 2 1.6-1.4 3.2-2.2 4.6-2.7 1.3-.4 2.4-.7 3.7-.5 1.8.2 2.7.7 2.9 1.7 0 1-.3 2.7-1.1 3.9-.3.1-.3.1-.6.1-.5 0-1.1-.1-1.6-.1-.5-.1-.9-.1-1.2-.1-2.3 0-4 .8-5.4 2.2z"/></svg>